<svg xmlns="http://www.w3.org/2000/svg" viewBox="0 0 128 128" fill="none">
  <rect width="128" height="128" rx="24" fill="#FFF1F8"/>
  <path
    d="M31 74.273c0-18.447 14.952-33.398 33.398-33.398h.925c18.447 0 33.4 14.95 33.4 33.398 0 10.603-4.94 20.05-12.649 26.167H43.648C35.94 94.323 31 84.876 31 74.273Z"
    fill="#632CA6"
  />
  <path
    d="M47.226 67.34c0-4.746 3.847-8.593 8.592-8.593 4.746 0 8.593 3.847 8.593 8.592v15.334h-8.593c-4.745 0-8.592-3.848-8.592-8.593V67.34ZM64.411 58.747h8.592c4.746 0 8.593 3.847 8.593 8.592v6.741c0 4.745-3.847 8.592-8.593 8.592H64.41V58.747Z"
    fill="#FFF"
  />
  <circle cx="55.818" cy="47.785" r="5.818" fill="#EF3E98"/>
  <circle cx="73.003" cy="47.785" r="5.818" fill="#EF3E98"/>
</svg>
