<svg xmlns="http://www.w3.org/2000/svg" viewBox="0 0 128 128" fill="none">
  <rect width="128" height="128" rx="24" fill="#F8F7FF"/>
  <path
    d="M85.617 86.603c-5.61 0-8.977-2.697-12.347-7.415-3.813-5.343-5.163-7.017-9.872-7.017-4.046 0-6.41 1.968-7.646 5.604-.846 2.49-3.184 4.2-5.829 4.2H32c0-14.963 10.685-24.98 26.396-24.98 9.993 0 17.295 3.815 22.568 11.533 1.818 2.646 3.585 3.988 5.43 3.988 2.236 0 4.116-1.771 4.116-4.052 0-2.105-1.194-3.44-3.596-4.346-4.482-1.706-8.91-4.775-13.05-9.66-4.65-5.478-8.986-8.14-15.32-8.14-7.295 0-12.912 3.234-16.826 9.475-1.414 2.257-3.925 3.673-6.59 3.673H32C35.876 43.98 47.475 34 62.575 34c9.86 0 16.917 3.374 23.136 10.792 2.538 3.036 4.576 4.253 6.597 4.253 2.202 0 3.99-1.725 3.99-3.89 0-2.245-1.737-3.92-5.044-4.85l4.475-14.54C107.3 28.936 114 36.667 114 46.32c0 7.917-4.483 13.932-13.338 17.507 4.355 2.695 7.34 7.53 7.34 13.315C108.002 82.806 97.62 86.603 85.617 86.603Z"
    fill="#362D59"
  />
</svg>
